<svg width="79" height="133" viewBox="0 0 79 133" fill="none" xmlns="http://www.w3.org/2000/svg">
<path d="M78.05 88.85C78.05 94.05 76.7 98.95 74 103.55C71.4 108.05 67.5 111.8 62.3 114.8C57.2 117.7 51.15 119.4 44.15 119.9V132.05H34.55V119.75C24.55 118.85 16.5 115.85 10.4 110.75C4.3 105.55 1.15 98.55 0.95 89.75H23.45C24.05 96.95 27.75 101.3 34.55 102.8V74.15C27.35 72.35 21.55 70.55 17.15 68.75C12.75 66.95 8.95 64.05 5.75 60.05C2.55 56.05 0.95 50.6 0.95 43.7C0.95 35 4.05 27.9 10.25 22.4C16.55 16.9 24.65 13.75 34.55 12.95V0.799993H44.15V12.95C53.75 13.75 61.4 16.65 67.1 21.65C72.9 26.65 76.15 33.55 76.85 42.35H54.2C53.9 39.45 52.85 36.95 51.05 34.85C49.35 32.65 47.05 31.1 44.15 30.2V58.55C51.65 60.45 57.55 62.3 61.85 64.1C66.25 65.8 70.05 68.65 73.25 72.65C76.45 76.55 78.05 81.95 78.05 88.85ZM22.85 42.65C22.85 45.95 23.85 48.65 25.85 50.75C27.85 52.75 30.75 54.4 34.55 55.7V29.75C30.95 30.25 28.1 31.6 26 33.8C23.9 36 22.85 38.95 22.85 42.65ZM44.15 103.1C47.95 102.4 50.9 100.85 53 98.45C55.2 96.05 56.3 93.15 56.3 89.75C56.3 86.45 55.25 83.8 53.15 81.8C51.05 79.8 48.05 78.15 44.15 76.85V103.1Z" fill="#FFF700"/>
</svg>
